<svg xmlns="http://www.w3.org/2000/svg" viewBox="0 0 700 700" role="img" aria-hidden="true">
<defs><linearGradient id="a" x1="0" y1="0" x2="1" y2="1"><stop offset="0%" stop-color="#efd8b4"/><stop offset="100%" stop-color="#bb8c4c"/></linearGradient>
<radialGradient id="gl"><stop offset="0%" stop-color="#efd8b4" stop-opacity="0.65"/><stop offset="100%" stop-color="#bb8c4c" stop-opacity="0"/></radialGradient>
<filter id="sh"><feDropShadow dx="0" dy="16" stdDeviation="18" flood-color="#000" flood-opacity="0.18"/></filter></defs>
<rect x="120" y="150" width="460" height="470" rx="18" fill="#fbf1dd" filter="url(#sh)"/><path d="M160 210 H540 M160 260 H540" stroke="#d8c7ad" stroke-width="4"/><rect x="165" y="305" width="110" height="110" rx="8" fill="#fff" transform="rotate(-7,220,360)"/><circle cx="220" cy="360" r="27.5" fill="#bb8c4c" opacity=".55"/><rect x="300" y="260" width="140" height="140" rx="8" fill="#fff" transform="rotate(6,370,330)"/><circle cx="370" cy="330" r="35.0" fill="#bb8c4c" opacity=".55"/><rect x="418" y="403" width="104" height="104" rx="8" fill="#fff" transform="rotate(-4,470,455)"/><circle cx="470" cy="455" r="26.0" fill="#bb8c4c" opacity=".55"/><rect x="241" y="436" width="88" height="88" rx="8" fill="#fff" transform="rotate(5,285,480)"/><circle cx="285" cy="480" r="22.0" fill="#bb8c4c" opacity=".55"/><path d="M170 565 Q350 515 530 565" fill="none" stroke="#b99968" stroke-width="8"/>
</svg>